<svg xmlns="http://www.w3.org/2000/svg" viewBox="0 0 64 64" width="64" height="64">
  <rect x="8" y="12" width="48" height="32" rx="4" ry="4" fill="#10b981" stroke="#059669" stroke-width="2"/>
  <rect x="8" y="12" width="48" height="8" rx="4" ry="4" fill="#059669"/>
  <circle cx="22" cy="28" r="6" fill="#ffffff"/>
  <path d="M16 38 Q22 34 28 38" fill="#ffffff"/>
  <rect x="34" y="24" width="18" height="2" rx="1" fill="#ffffff"/>
  <rect x="34" y="28" width="14" height="2" rx="1" fill="#ffffff"/>
  <rect x="34" y="32" width="16" height="2" rx="1" fill="#ffffff"/>
  <rect x="34" y="36" width="12" height="2" rx="1" fill="#ffffff"/>
  <rect x="12" y="16" width="8" height="2" rx="1" fill="#ffffff"/>
  <rect x="24" y="16" width="6" height="2" rx="1" fill="#ffffff"/>
  <circle cx="48" cy="48" r="8" fill="#fbbf24" stroke="#f59e0b" stroke-width="2"/>
  <path d="M44 48 L46 50 L52 44" stroke="#ffffff" stroke-width="2" fill="none" stroke-linecap="round" stroke-linejoin="round"/>
</svg>
