<svg xmlns="http://www.w3.org/2000/svg" viewBox="0 0 64 64" width="64" height="64">
  <rect x="8" y="16" width="48" height="32" rx="6" ry="6" fill="#f59e0b" stroke="#d97706" stroke-width="2"/>
  <rect x="12" y="22" width="12" height="8" rx="2" fill="#ffffff"/>
  <rect x="16" y="24" width="4" height="4" rx="1" fill="#f59e0b"/>
  <rect x="28" y="22" width="24" height="2" rx="1" fill="#ffffff"/>
  <rect x="28" y="26" width="20" height="2" rx="1" fill="#ffffff"/>
  <rect x="28" y="30" width="18" height="2" rx="1" fill="#ffffff"/>
  <rect x="12" y="34" width="40" height="2" rx="1" fill="#ffffff"/>
  <rect x="12" y="38" width="16" height="2" rx="1" fill="#ffffff"/>
  <rect x="32" y="38" width="12" height="2" rx="1" fill="#ffffff"/>
  <circle cx="48" cy="8" r="6" fill="#10b981" stroke="#059669" stroke-width="2"/>
  <path d="M45 8 L47 10 L51 6" stroke="#ffffff" stroke-width="2" fill="none" stroke-linecap="round" stroke-linejoin="round"/>
  <circle cx="16" cy="56" r="4" fill="#ef4444"/>
  <circle cx="24" cy="56" r="4" fill="#3b82f6"/>
  <circle cx="32" cy="56" r="4" fill="#8b5cf6"/>
  <circle cx="40" cy="56" r="4" fill="#06b6d4"/>
</svg>
