<svg width="100" height="100" viewBox="0 0 100 100" fill="none" xmlns="http://www.w3.org/2000/svg">
<path fill-rule="evenodd" clip-rule="evenodd" d="M0 0H35V35H0V0ZM5 5V30H30V5H5Z" fill="#386641"/>
<path d="M10 10H25V25H10V10Z" fill="#386641"/>
<path fill-rule="evenodd" clip-rule="evenodd" d="M65 0H100V35H65V0ZM70 5V30H95V5H70Z" fill="#386641"/>
<path d="M75 10H90V25H75V10Z" fill="#386641"/>
<path fill-rule="evenodd" clip-rule="evenodd" d="M0 65H35V100H0V65ZM5 70V95H30V70H5Z" fill="#386641"/>
<path d="M10 75H25V90H10V75Z" fill="#386641"/>
<path d="M40 90H45V95H40V90Z" fill="#386641"/>
<path d="M45 95H50V100H45V95Z" fill="#386641"/>
<path d="M45 85H50V90H45V85Z" fill="#386641"/>
<path d="M40 80H45V85H40V80Z" fill="#386641"/>
<path d="M40 75H45V80H40V75Z" fill="#386641"/>
<path d="M50 75H55V80H50V75Z" fill="#386641"/>
<path d="M55 70H60V75H55V70Z" fill="#386641"/>
<path d="M60 65H65V70H60V65Z" fill="#386641"/>
<path d="M55 90H60V95H55V90Z" fill="#386641"/>
<path d="M60 95H65V100H60V95Z" fill="#386641"/>
<path d="M65 90H70V95H65V90Z" fill="#386641"/>
<path d="M70 85H75V90H70V85Z" fill="#386641"/>
<path d="M75 80H80V85H75V80Z" fill="#386641"/>
<path d="M85 75H90V80H85V75Z" fill="#386641"/>
<path d="M90 70H95V75H90V70Z" fill="#386641"/>
<path d="M95 65H100V70H95V65Z" fill="#386641"/>
<path d="M90 90H95V95H90V90Z" fill="#386641"/>
<path d="M95 95H100V100H95V95Z" fill="#386641"/>
<path d="M40 40H45V45H40V40Z" fill="#386641"/>
<path d="M45 40H50V45H45V40Z" fill="#386641"/>
<path d="M40 45H45V50H40V45Z" fill="#386641"/>
<path d="M55 45H60V50H55V45Z" fill="#386641"/>
<path d="M60 40H65V45H60V40Z" fill="#386641"/>
<path d="M65 40H70V45H65V40Z" fill="#386641"/>
<path d="M70 45H75V50H70V45Z" fill="#386641"/>
<path d="M75 40H80V45H75V40Z" fill="#386641"/>
<path d="M85 40H90V45H85V40Z" fill="#386641"/>
<path d="M90 45H95V50H90V45Z" fill="#386641"/>
<path d="M95 40H100V45H95V40Z" fill="#386641"/>
<path d="M40 55H45V60H40V55Z" fill="#386641"/>
<path d="M45 60H50V65H45V60Z" fill="#386641"/>
<path d="M50 50H55V55H50V50Z" fill="#386641"/>
<path d="M60 55H65V60H60V55Z" fill="#386641"/>
<path d="M65 60H70V65H65V60Z" fill="#386641"/>
<path d="M70 55H75V60H70V55Z" fill="#386641"/>
<path d="M80 50H85V55H80V50Z" fill="#386641"/>
<path d="M85 55H90V60H85V55Z" fill="#386641"/>
<path d="M90 60H95V65H90V60Z" fill="#386641"/>
<path d="M80 65H85V70H80V65Z" fill="#386641"/>
<path d="M85 65H90V70H85V65Z" fill="#386641"/>
<path d="M75 95H80V100H75V95Z" fill="#386641"/>
</svg>
